<?xml version="1.0" standalone="no"?>
<!DOCTYPE svg PUBLIC "-//W3C//DTD SVG 20010904//EN"
 "http://www.w3.org/TR/2001/REC-SVG-20010904/DTD/svg10.dtd">
<svg version="1.0" xmlns="http://www.w3.org/2000/svg"
 width="512.000000pt" height="512.000000pt" viewBox="0 0 512.000000 512.000000"
 preserveAspectRatio="xMidYMid meet">

<g transform="translate(0.000000,512.000000) scale(0.100000,-0.100000)"
fill="#000000" stroke="none">
<path d="M1785 4354 c-444 -22 -1152 -85 -1290 -115 -188 -41 -367 -220 -414
-414 -35 -145 -81 -860 -81 -1265 0 -405 46 -1120 81 -1265 47 -194 226 -372
414 -414 71 -15 465 -57 760 -81 838 -67 1760 -67 2613 0 292 23 684 65 757
81 189 42 367 220 414 414 35 145 81 860 81 1265 0 405 -46 1120 -81 1265 -47
194 -226 372 -414 414 -146 32 -833 92 -1320 116 -375 18 -1146 18 -1520 -1z
m994 -1369 c347 -231 630 -422 630 -425 0 -5 -1253 -842 -1270 -848 -5 -2 -9
348 -9 848 0 500 4 850 9 848 5 -1 293 -192 640 -423z"/>
</g>
</svg>
